<svg xmlns="http://www.w3.org/2000/svg" width="600" height="130" viewBox="0 0 600 130">
<path d="M 7.00,92.00 L 7.00,98.00 L 11.00,103.00 L 14.00,104.00 L 39.00,104.00 L 42.00,103.00 L 46.00,98.00 L 45.00,88.00 L 48.00,84.00 L 50.00,83.00 L 65.00,83.00 L 68.00,84.00 L 71.00,88.00 L 71.00,92.00 L 70.00,93.00 L 71.00,100.00 L 74.00,103.00 L 77.00,104.00 L 103.00,104.00 L 109.00,100.00 L 112.00,100.00 L 119.00,104.00 L 144.00,104.00 L 147.00,103.00 L 151.00,98.00 L 151.00,92.00 L 148.00,88.00 L 142.00,85.00 L 139.00,82.00 L 134.00,70.00 L 133.00,59.00 L 132.00,58.00 L 133.00,34.00 L 137.00,29.00 L 141.00,28.00 L 145.00,31.00 L 149.00,41.00 L 149.00,46.00 L 145.00,52.00 L 145.00,56.00 L 147.00,60.00 L 153.00,65.00 L 160.00,86.00 L 169.00,97.00 L 179.00,103.00 L 184.00,103.00 L 185.00,104.00 L 215.00,104.00 L 216.00,103.00 L 223.00,103.00 L 225.00,104.00 L 232.00,102.00 L 233.00,103.00 L 245.00,104.00 L 246.00,105.00 L 265.00,106.00 L 266.00,105.00 L 272.00,105.00 L 273.00,104.00 L 281.00,103.00 L 289.00,99.00 L 299.00,89.00 L 304.00,89.00 L 308.00,94.00 L 309.00,100.00 L 312.00,103.00 L 315.00,104.00 L 372.00,104.00 L 375.00,103.00 L 380.00,98.00 L 384.00,98.00 L 388.00,102.00 L 392.00,104.00 L 418.00,104.00 L 421.00,103.00 L 424.00,100.00 L 425.00,94.00 L 424.00,91.00 L 420.00,87.00 L 414.00,87.00 L 410.00,85.00 L 404.00,76.00 L 402.00,69.00 L 402.00,62.00 L 406.00,56.00 L 406.00,52.00 L 400.00,44.00 L 400.00,39.00 L 402.00,32.00 L 406.00,28.00 L 410.00,28.00 L 414.00,31.00 L 418.00,39.00 L 422.00,51.00 L 422.00,56.00 L 417.00,61.00 L 415.00,65.00 L 416.00,71.00 L 421.00,75.00 L 449.00,75.00 L 454.00,71.00 L 454.00,63.00 L 448.00,57.00 L 448.00,50.00 L 456.00,31.00 L 459.00,28.00 L 464.00,28.00 L 467.00,31.00 L 469.00,36.00 L 469.00,45.00 L 464.00,52.00 L 464.00,56.00 L 468.00,62.00 L 468.00,68.00 L 463.00,81.00 L 458.00,86.00 L 450.00,87.00 L 445.00,91.00 L 445.00,99.00 L 447.00,102.00 L 451.00,104.00 L 477.00,104.00 L 481.00,102.00 L 485.00,97.00 L 490.00,97.00 L 496.00,103.00 L 499.00,104.00 L 524.00,104.00 L 527.00,103.00 L 531.00,98.00 L 530.00,88.00 L 532.00,85.00 L 536.00,83.00 L 551.00,83.00 L 556.00,87.00 L 556.00,93.00 L 555.00,94.00 L 556.00,100.00 L 559.00,103.00 L 562.00,104.00 L 588.00,104.00 L 592.00,102.00 L 595.00,95.00 L 593.00,90.00 L 588.00,87.00 L 584.00,82.00 L 576.00,35.00 L 574.00,27.00 L 572.00,24.00 L 575.00,15.00 L 574.00,11.00 L 569.00,7.00 L 517.00,7.00 L 515.00,8.00 L 512.00,12.00 L 512.00,18.00 L 514.00,21.00 L 514.00,25.00 L 511.00,31.00 L 509.00,46.00 L 506.00,50.00 L 501.00,51.00 L 495.00,45.00 L 494.00,32.00 L 493.00,31.00 L 493.00,27.00 L 491.00,24.00 L 492.00,12.00 L 487.00,7.00 L 456.00,7.00 L 446.00,12.00 L 437.00,22.00 L 433.00,22.00 L 425.00,13.00 L 414.00,7.00 L 382.00,7.00 L 374.00,15.00 L 370.00,15.00 L 362.00,7.00 L 313.00,7.00 L 306.00,13.00 L 303.00,13.00 L 298.00,9.00 L 296.00,4.00 L 292.00,2.00 L 288.00,2.00 L 281.00,7.00 L 275.00,7.00 L 268.00,5.00 L 254.00,5.00 L 253.00,6.00 L 244.00,7.00 L 235.00,11.00 L 225.00,19.00 L 220.00,18.00 L 217.00,14.00 L 217.00,11.00 L 212.00,7.00 L 184.00,7.00 L 179.00,11.00 L 178.00,19.00 L 189.00,30.00 L 193.00,40.00 L 193.00,44.00 L 195.00,50.00 L 195.00,73.00 L 193.00,79.00 L 189.00,82.00 L 185.00,82.00 L 182.00,79.00 L 178.00,67.00 L 178.00,62.00 L 181.00,59.00 L 182.00,56.00 L 181.00,49.00 L 174.00,43.00 L 171.00,32.00 L 163.00,18.00 L 158.00,13.00 L 146.00,7.00 L 107.00,7.00 L 102.00,13.00 L 103.00,20.00 L 109.00,27.00 L 108.00,35.00 L 107.00,36.00 L 107.00,56.00 L 103.00,61.00 L 98.00,61.00 L 94.00,56.00 L 91.00,35.00 L 87.00,23.00 L 90.00,15.00 L 86.00,8.00 L 84.00,7.00 L 32.00,7.00 L 27.00,12.00 L 27.00,19.00 L 29.00,22.00 L 29.00,25.00 L 25.00,36.00 L 25.00,41.00 L 22.00,52.00 L 22.00,58.00 L 19.00,68.00 L 19.00,74.00 L 18.00,75.00 L 17.00,83.00 L 15.00,86.00 L 10.00,88.00 Z M 218.00,54.00 L 222.00,49.00 L 226.00,49.00 L 236.00,57.00 L 248.00,61.00 L 250.00,63.00 L 252.00,69.00 L 256.00,72.00 L 260.00,73.00 L 263.00,72.00 L 267.00,68.00 L 270.00,67.00 L 273.00,68.00 L 277.00,72.00 L 278.00,78.00 L 273.00,83.00 L 264.00,86.00 L 253.00,86.00 L 252.00,85.00 L 241.00,84.00 L 237.00,82.00 L 229.00,73.00 L 223.00,72.00 L 220.00,70.00 L 218.00,64.00 Z M 541.00,28.00 L 547.00,29.00 L 550.00,32.00 L 552.00,37.00 L 553.00,46.00 L 556.00,55.00 L 556.00,63.00 L 553.00,66.00 L 534.00,66.00 L 530.00,62.00 L 530.00,56.00 L 532.00,51.00 L 535.00,34.00 Z M 56.00,28.00 L 62.00,29.00 L 65.00,32.00 L 67.00,37.00 L 67.00,42.00 L 71.00,56.00 L 71.00,62.00 L 67.00,66.00 L 48.00,66.00 L 45.00,63.00 L 45.00,56.00 L 49.00,42.00 L 49.00,37.00 L 51.00,32.00 Z M 343.00,26.00 L 348.00,27.00 L 352.00,33.00 L 356.00,35.00 L 361.00,35.00 L 367.00,31.00 L 371.00,31.00 L 375.00,35.00 L 375.00,42.00 L 374.00,44.00 L 367.00,50.00 L 367.00,58.00 L 376.00,66.00 L 376.00,72.00 L 371.00,76.00 L 366.00,76.00 L 357.00,85.00 L 347.00,85.00 L 338.00,82.00 L 333.00,78.00 L 328.00,70.00 L 328.00,68.00 L 331.00,64.00 L 333.00,63.00 L 344.00,63.00 L 348.00,61.00 L 351.00,57.00 L 351.00,51.00 L 349.00,48.00 L 346.00,46.00 L 334.00,46.00 L 329.00,42.00 L 330.00,35.00 L 336.00,29.00 Z M 246.00,29.00 L 249.00,25.00 L 256.00,22.00 L 266.00,22.00 L 273.00,25.00 L 279.00,31.00 L 283.00,33.00 L 292.00,34.00 L 297.00,31.00 L 300.00,31.00 L 304.00,34.00 L 305.00,38.00 L 304.00,42.00 L 301.00,45.00 L 295.00,47.00 L 291.00,51.00 L 287.00,51.00 L 284.00,49.00 L 281.00,49.00 L 278.00,47.00 L 273.00,46.00 L 269.00,39.00 L 265.00,36.00 L 259.00,36.00 L 254.00,39.00 L 249.00,38.00 L 246.00,34.00 Z" fill="#000000" fill-rule="evenodd" stroke="none"/>
</svg>